<svg width="62" height="62" viewBox="0 0 62 62" fill="none" xmlns="http://www.w3.org/2000/svg">
    <mask id="mask0_692_621" style="mask-type:alpha" maskUnits="userSpaceOnUse" x="0" y="0"
        width="62" height="62">
        <rect width="62" height="62" transform="matrix(-1 0 0 1 62 0)" fill="#1C1B1F" />
    </mask>
    <g mask="url(#mask0_692_621)">
        <path
            d="M56.832 56.8333V10.3333C56.832 8.91251 56.3261 7.69619 55.3143 6.68438C54.3025 5.67257 53.0862 5.16667 51.6654 5.16667H10.332C8.91119 5.16667 7.69487 5.67257 6.68307 6.68438C5.67126 7.69619 5.16536 8.91251 5.16536 10.3333V41.3333C5.16536 42.7542 5.67126 43.9705 6.68307 44.9823C7.69487 45.9941 8.91119 46.5 10.332 46.5H46.4987L56.832 56.8333ZM48.6945 41.3333H10.332V10.3333H51.6654V44.2396L48.6945 41.3333Z"
            fill="white" />
        <path d="M17 27.5C28.6073 35.7549 34.7278 35.1937 45 27.5" stroke="white" stroke-width="4" />
    </g>
</svg>