<svg width="45" height="45" viewBox="0 0 45 45" fill="none" xmlns="http://www.w3.org/2000/svg">
<path d="M5.70996 36.15C4.33774 34.525 3.23635 32.7375 2.40579 30.7875C1.57524 28.8375 1.05163 26.7972 0.834961 24.6666H5.27663C5.49329 26.2194 5.89052 27.709 6.4683 29.1354C7.04607 30.5618 7.80441 31.8889 8.7433 33.1166L5.70996 36.15ZM0.834961 20.3333C1.12385 18.2028 1.66552 16.1625 2.45996 14.2125C3.25441 12.2625 4.33774 10.475 5.70996 8.84998L8.7433 11.8833C7.80441 13.1111 7.04607 14.4382 6.4683 15.8646C5.89052 17.291 5.49329 18.7805 5.27663 20.3333H0.834961ZM20.2266 44.0583C18.0961 43.8416 16.0648 43.3271 14.1329 42.5146C12.2009 41.7021 10.4044 40.6278 8.7433 39.2916L11.7766 36.15C13.0405 37.0889 14.3766 37.8653 15.785 38.4791C17.1933 39.093 18.6739 39.5083 20.2266 39.725V44.0583ZM11.885 8.84998L8.7433 5.70832C10.4405 4.37221 12.2641 3.2979 14.2141 2.4854C16.1641 1.6729 18.2044 1.15832 20.335 0.94165V5.27498C18.7822 5.49165 17.2926 5.90693 15.8662 6.52082C14.4398 7.13471 13.1127 7.91109 11.885 8.84998ZM24.56 44.0583V39.725C26.1489 39.5083 27.6565 39.1021 29.0829 38.5062C30.5093 37.9104 31.8544 37.125 33.1183 36.15L36.26 39.2916C34.5627 40.6639 32.7301 41.7472 30.762 42.5416C28.794 43.3361 26.7266 43.8416 24.56 44.0583ZM33.2266 8.84998C31.9627 7.91109 30.6086 7.13471 29.1641 6.52082C27.7197 5.90693 26.2211 5.49165 24.6683 5.27498V0.94165C26.7989 1.15832 28.8482 1.6729 30.8162 2.4854C32.7843 3.2979 34.5989 4.37221 36.26 5.70832L33.2266 8.84998ZM39.2933 36.15L36.26 33.1166C37.1989 31.8889 37.9572 30.5618 38.535 29.1354C39.1127 27.709 39.51 26.2194 39.7266 24.6666H44.1683C43.8794 26.7972 43.3377 28.8375 42.5433 30.7875C41.7489 32.7375 40.6655 34.525 39.2933 36.15ZM39.7266 20.3333C39.51 18.7805 39.1127 17.291 38.535 15.8646C37.9572 14.4382 37.1989 13.1111 36.26 11.8833L39.2933 8.84998C40.6655 10.475 41.7669 12.2625 42.5975 14.2125C43.428 16.1625 43.9516 18.2028 44.1683 20.3333H39.7266ZM20.3891 33.3333V19.9542L14.7558 25.5875L11.7225 22.5L22.5558 11.6666L33.3891 22.5L30.3016 25.5333L24.7225 19.9542V33.3333H20.3891Z" fill="#CCCCCC"/>
</svg>
