<svg width="52" height="50" viewBox="0 0 52 50" fill="none" xmlns="http://www.w3.org/2000/svg">
<mask id="mask0_752_660" style="mask-type:alpha" maskUnits="userSpaceOnUse" x="0" y="2" width="48" height="48">
<rect y="2" width="48" height="48" fill="#D9D9D9"/>
</mask>
<g mask="url(#mask0_752_660)">
<path d="M3.99609 46V9.99998C3.99609 8.89998 4.38776 7.95832 5.17109 7.17498C5.95443 6.39165 6.89609 5.99998 7.99609 5.99998H39.9961C41.0961 5.99998 42.0378 6.39165 42.8211 7.17498C43.6044 7.95832 43.9961 8.89998 43.9961 9.99998V34C43.9961 35.1 43.6044 36.0416 42.8211 36.825C42.0378 37.6083 41.0961 38 39.9961 38H11.9961L3.99609 46ZM10.2961 34H39.9961V9.99998H7.99609V36.25L10.2961 34Z" fill="black"/>
</g>
<mask id="mask1_752_660" style="mask-type:alpha" maskUnits="userSpaceOnUse" x="31" y="-1" width="22" height="22">
<rect x="31.5" y="-0.5" width="21" height="21" fill="#D9D9D9" stroke="white"/>
</mask>
<g mask="url(#mask1_752_660)">
<path d="M41.1921 9.64647L38.5456 7.00002L39.0052 6.54046L41.6517 9.18691L42.0052 9.54046L42.3588 9.18691L45.0052 6.54046L45.4648 7.00002L42.8183 9.64647L42.4648 10L42.8183 10.3536L45.4648 13L45.0052 13.4596L42.3588 10.8131L42.0052 10.4596L41.6517 10.8131L39.0052 13.4596L38.5456 13L41.1921 10.3536L41.5456 10L41.1921 9.64647ZM38.5571 18.1362C39.6363 18.6019 40.7874 18.8334 42.0052 18.8334C43.2231 18.8334 44.3741 18.6019 45.4533 18.1362C46.5228 17.6747 47.4581 17.0459 48.2546 16.2494C49.0511 15.4529 49.6799 14.5176 50.1414 13.4481C50.607 12.3689 50.8385 11.2179 50.8385 10C50.8385 8.78217 50.607 7.63111 50.1414 6.55192C49.6799 5.48244 49.0511 4.54715 48.2546 3.75063C47.4581 2.95412 46.5228 2.32534 45.4533 1.86385C44.3741 1.39818 43.2231 1.16669 42.0052 1.16669C40.7874 1.16669 39.6363 1.39818 38.5571 1.86385C37.4876 2.32534 36.5523 2.95412 35.7558 3.75063C34.9593 4.54715 34.3305 5.48244 33.869 6.55192C33.4034 7.63111 33.1719 8.78217 33.1719 10C33.1719 11.2179 33.4034 12.3689 33.869 13.4481C34.3305 14.5176 34.9593 15.4529 35.7558 16.2494C36.5523 17.0459 37.4876 17.6747 38.5571 18.1362Z" fill="black" stroke="white"/>
</g>
</svg>
