<svg width="52" height="51" viewBox="0 0 52 51" fill="none" xmlns="http://www.w3.org/2000/svg">
<g clip-path="url(#clip0_692_617)">
<path d="M21.5 17.25H45.5C47.15 17.25 48.5 18.6 48.5 20.25V47.25L42.5 41.25H21.5C19.85 41.25 18.5 39.9 18.5 38.25V20.25C18.5 18.6 19.85 17.25 21.5 17.25Z" fill="black"/>
</g>
<mask id="mask0_692_617" style="mask-type:alpha" maskUnits="userSpaceOnUse" x="0" y="0" width="37" height="37">
<rect x="0.5" y="0.75" width="36" height="36" fill="#D9D9D9"/>
</mask>
<g mask="url(#mask0_692_617)">
<path d="M3.5 33.75V6.75C3.5 5.925 3.79375 5.21875 4.38125 4.63125C4.96875 4.04375 5.675 3.75 6.5 3.75H30.5C31.325 3.75 32.0312 4.04375 32.6188 4.63125C33.2063 5.21875 33.5 5.925 33.5 6.75V24.75C33.5 25.575 33.2063 26.2812 32.6188 26.8688C32.0312 27.4563 31.325 27.75 30.5 27.75H9.5L3.5 33.75ZM8.225 24.75H30.5V6.75H6.5V26.4375L8.225 24.75Z" fill="black"/>
</g>
<defs>
<clipPath id="clip0_692_617">
<rect width="36" height="36" fill="white" transform="matrix(-1 0 0 1 51.5 14.25)"/>
</clipPath>
</defs>
</svg>
