<svg width="74" height="48" viewBox="0 0 74 48" fill="none" xmlns="http://www.w3.org/2000/svg">
<path d="M0.666667 6C0.666667 8.94552 3.05448 11.3333 6 11.3333C8.94552 11.3333 11.3333 8.94552 11.3333 6C11.3333 3.05448 8.94552 0.666667 6 0.666667C3.05448 0.666667 0.666667 3.05448 0.666667 6ZM62.6667 42.5755C62.6667 45.5211 65.0545 47.9089 68 47.9089C70.9455 47.9089 73.3333 45.5211 73.3333 42.5755C73.3333 39.63 70.9455 37.2422 68 37.2422C65.0545 37.2422 62.6667 39.63 62.6667 42.5755ZM6 7H58.4101V5H6V7ZM58.4101 24.1799H14.6978V26.1799H58.4101V24.1799ZM14.6978 43.5755H68V41.5755H14.6978V43.5755ZM5 33.8777C5 39.2337 9.34187 43.5755 14.6978 43.5755V41.5755C10.4464 41.5755 7 38.1291 7 33.8777H5ZM14.6978 24.1799C9.34187 24.1799 5 28.5217 5 33.8777H7C7 29.6263 10.4464 26.1799 14.6978 26.1799V24.1799ZM67 15.5899C67 20.334 63.1542 24.1799 58.4101 24.1799V26.1799C64.2587 26.1799 69 21.4386 69 15.5899H67ZM58.4101 7C63.1542 7 67 10.8458 67 15.5899H69C69 9.74127 64.2587 5 58.4101 5V7Z" fill="black"/>
</svg>
