<svg width="72" height="72" viewBox="0 0 72 72" fill="none" xmlns="http://www.w3.org/2000/svg">
<rect width="72" height="72" rx="36" fill="#57DD67"/>
<mask id="mask0_88_40" style="mask-type:alpha" maskUnits="userSpaceOnUse" x="12" y="12" width="48" height="48">
<rect x="12" y="12" width="48" height="48" fill="#D9D9D9"/>
</mask>
<g mask="url(#mask0_88_40)">
<path d="M48 38V34H56V38H48ZM50.4 52L44 47.2L46.4 44L52.8 48.8L50.4 52ZM46.4 28L44 24.8L50.4 20L52.8 23.2L46.4 28ZM22 50V42H20C18.9 42 17.9583 41.6083 17.175 40.825C16.3917 40.0417 16 39.1 16 38V34C16 32.9 16.3917 31.9583 17.175 31.175C17.9583 30.3917 18.9 30 20 30H28L38 24V48L28 42H26V50H22ZM34 40.9V31.1L29.1 34H20V38H29.1L34 40.9ZM40 42.7V29.3C40.9 30.1 41.625 31.075 42.175 32.225C42.725 33.375 43 34.6333 43 36C43 37.3667 42.725 38.625 42.175 39.775C41.625 40.925 40.9 41.9 40 42.7Z" fill="white"/>
</g>
</svg>
