<svg width="72" height="72" viewBox="0 0 72 72" fill="none" xmlns="http://www.w3.org/2000/svg">
<rect width="72" height="72" rx="36" fill="#5E57DD"/>
<mask id="mask0_88_74" style="mask-type:alpha" maskUnits="userSpaceOnUse" x="12" y="12" width="48" height="48">
<rect x="12" y="12" width="48" height="48" fill="#D9D9D9"/>
</mask>
<g mask="url(#mask0_88_74)">
<path d="M34.2 50H37.7V47.5C39.3667 47.2 40.8 46.55 42 45.55C43.2 44.55 43.8 43.0667 43.8 41.1C43.8 39.7 43.4 38.4167 42.6 37.25C41.8 36.0833 40.2 35.0667 37.8 34.2C35.8 33.5333 34.4167 32.95 33.65 32.45C32.8833 31.95 32.5 31.2667 32.5 30.4C32.5 29.5333 32.8083 28.85 33.425 28.35C34.0417 27.85 34.9333 27.6 36.1 27.6C37.1667 27.6 38 27.8583 38.6 28.375C39.2 28.8917 39.6333 29.5333 39.9 30.3L43.1 29C42.7333 27.8333 42.0583 26.8167 41.075 25.95C40.0917 25.0833 39 24.6 37.8 24.5V22H34.3V24.5C32.6333 24.8667 31.3333 25.6 30.4 26.7C29.4667 27.8 29 29.0333 29 30.4C29 31.9667 29.4583 33.2333 30.375 34.2C31.2917 35.1667 32.7333 36 34.7 36.7C36.8 37.4667 38.2583 38.15 39.075 38.75C39.8917 39.35 40.3 40.1333 40.3 41.1C40.3 42.2 39.9083 43.0083 39.125 43.525C38.3417 44.0417 37.4 44.3 36.3 44.3C35.2 44.3 34.225 43.9583 33.375 43.275C32.525 42.5917 31.9 41.5667 31.5 40.2L28.2 41.5C28.6667 43.1 29.3917 44.3917 30.375 45.375C31.3583 46.3583 32.6333 47.0333 34.2 47.4V50ZM36 56C33.2333 56 30.6333 55.475 28.2 54.425C25.7667 53.375 23.65 51.95 21.85 50.15C20.05 48.35 18.625 46.2333 17.575 43.8C16.525 41.3667 16 38.7667 16 36C16 33.2333 16.525 30.6333 17.575 28.2C18.625 25.7667 20.05 23.65 21.85 21.85C23.65 20.05 25.7667 18.625 28.2 17.575C30.6333 16.525 33.2333 16 36 16C38.7667 16 41.3667 16.525 43.8 17.575C46.2333 18.625 48.35 20.05 50.15 21.85C51.95 23.65 53.375 25.7667 54.425 28.2C55.475 30.6333 56 33.2333 56 36C56 38.7667 55.475 41.3667 54.425 43.8C53.375 46.2333 51.95 48.35 50.15 50.15C48.35 51.95 46.2333 53.375 43.8 54.425C41.3667 55.475 38.7667 56 36 56ZM36 52C40.4667 52 44.25 50.45 47.35 47.35C50.45 44.25 52 40.4667 52 36C52 31.5333 50.45 27.75 47.35 24.65C44.25 21.55 40.4667 20 36 20C31.5333 20 27.75 21.55 24.65 24.65C21.55 27.75 20 31.5333 20 36C20 40.4667 21.55 44.25 24.65 47.35C27.75 50.45 31.5333 52 36 52Z" fill="white"/>
</g>
</svg>
