<svg width="72" height="72" viewBox="0 0 72 72" fill="none" xmlns="http://www.w3.org/2000/svg">
<rect width="72" height="72" rx="36" fill="#DDB957"/>
<mask id="mask0_88_6" style="mask-type:alpha" maskUnits="userSpaceOnUse" x="12" y="12" width="48" height="48">
<rect x="12" y="12" width="48" height="48" fill="#D9D9D9"/>
</mask>
<g mask="url(#mask0_88_6)">
<path d="M36 56C33.2333 56 30.6333 55.475 28.2 54.425C25.7667 53.375 23.65 51.95 21.85 50.15C20.05 48.35 18.625 46.2333 17.575 43.8C16.525 41.3667 16 38.7667 16 36C16 33.2333 16.525 30.6333 17.575 28.2C18.625 25.7667 20.05 23.65 21.85 21.85C23.65 20.05 25.7667 18.625 28.2 17.575C30.6333 16.525 33.2333 16 36 16C38.7667 16 41.3667 16.525 43.8 17.575C46.2333 18.625 48.35 20.05 50.15 21.85C51.95 23.65 53.375 25.7667 54.425 28.2C55.475 30.6333 56 33.2333 56 36C56 38.7667 55.475 41.3667 54.425 43.8C53.375 46.2333 51.95 48.35 50.15 50.15C48.35 51.95 46.2333 53.375 43.8 54.425C41.3667 55.475 38.7667 56 36 56ZM30.2 50.9L32.6 45.4C31.2 44.9 29.9917 44.125 28.975 43.075C27.9583 42.025 27.1667 40.8 26.6 39.4L21.1 41.7C21.8667 43.8333 23.05 45.7 24.65 47.3C26.25 48.9 28.1 50.1 30.2 50.9ZM26.6 32.6C27.1667 31.2 27.9583 29.975 28.975 28.925C29.9917 27.875 31.2 27.1 32.6 26.6L30.3 21.1C28.1667 21.9 26.3 23.1 24.7 24.7C23.1 26.3 21.9 28.1667 21.1 30.3L26.6 32.6ZM36 42C37.6667 42 39.0833 41.4167 40.25 40.25C41.4167 39.0833 42 37.6667 42 36C42 34.3333 41.4167 32.9167 40.25 31.75C39.0833 30.5833 37.6667 30 36 30C34.3333 30 32.9167 30.5833 31.75 31.75C30.5833 32.9167 30 34.3333 30 36C30 37.6667 30.5833 39.0833 31.75 40.25C32.9167 41.4167 34.3333 42 36 42ZM41.8 50.9C43.9 50.1 45.7417 48.9083 47.325 47.325C48.9083 45.7417 50.1 43.9 50.9 41.8L45.4 39.4C44.9 40.8 44.1333 42.0083 43.1 43.025C42.0667 44.0417 40.8667 44.8333 39.5 45.4L41.8 50.9ZM45.4 32.5L50.9 30.2C50.1 28.1 48.9083 26.2583 47.325 24.675C45.7417 23.0917 43.9 21.9 41.8 21.1L39.5 26.7C40.8667 27.2 42.05 27.9583 43.05 28.975C44.05 29.9917 44.8333 31.1667 45.4 32.5Z" fill="white"/>
</g>
</svg>
