<svg width="142" height="142" viewBox="0 0 142 142" fill="none" xmlns="http://www.w3.org/2000/svg">
<rect x="0.289062" y="71" width="100" height="100" rx="10" transform="rotate(-45 0.289062 71)" fill="white"/>
<mask id="mask0_720_626" style="mask-type:alpha" maskUnits="userSpaceOnUse" x="45" y="43" width="24" height="24">
<rect x="45" y="43" width="24" height="24" fill="#D9D9D9"/>
</mask>
<g mask="url(#mask0_720_626)">
<path d="M47 65V47C47 46.45 47.1958 45.9792 47.5875 45.5875C47.9792 45.1958 48.45 45 49 45H65C65.55 45 66.0208 45.1958 66.4125 45.5875C66.8042 45.9792 67 46.45 67 47V59C67 59.55 66.8042 60.0208 66.4125 60.4125C66.0208 60.8042 65.55 61 65 61H51L47 65ZM50.15 59H65V47H49V60.125L50.15 59Z" fill="#1C1B1F"/>
</g>
<mask id="mask1_720_626" style="mask-type:alpha" maskUnits="userSpaceOnUse" x="40" y="40" width="62" height="62">
<rect x="40" y="40" width="62" height="62" fill="#D9D9D9"/>
</mask>
<g mask="url(#mask1_720_626)">
<path d="M70.9987 71C68.157 71 65.7244 69.9882 63.7008 67.9646C61.6772 65.941 60.6654 63.5083 60.6654 60.6667C60.6654 57.825 61.6772 55.3924 63.7008 53.3687C65.7244 51.3451 68.157 50.3333 70.9987 50.3333C73.8404 50.3333 76.273 51.3451 78.2966 53.3687C80.3202 55.3924 81.332 57.825 81.332 60.6667C81.332 63.5083 80.3202 65.941 78.2966 67.9646C76.273 69.9882 73.8404 71 70.9987 71ZM50.332 91.6667V84.4333C50.332 82.9694 50.7088 81.6239 51.4622 80.3969C52.2157 79.1698 53.2168 78.2333 54.4654 77.5875C57.1348 76.2528 59.8473 75.2517 62.6029 74.5844C65.3584 73.917 68.157 73.5833 70.9987 73.5833C73.8404 73.5833 76.639 73.917 79.3945 74.5844C82.1501 75.2517 84.8626 76.2528 87.532 77.5875C88.7806 78.2333 89.7817 79.1698 90.5352 80.3969C91.2886 81.6239 91.6654 82.9694 91.6654 84.4333V91.6667H50.332Z" fill="#1C1B1F"/>
</g>
</svg>
