<svg width="13" height="15" viewBox="0 0 13 15" fill="none" xmlns="http://www.w3.org/2000/svg">
<path d="M6.5 15C4.7625 14.5625 3.32812 13.5656 2.19688 12.0094C1.06563 10.4531 0.5 8.725 0.5 6.825V2.25L6.5 0L12.5 2.25V6.825C12.5 8.725 11.9344 10.4531 10.8031 12.0094C9.67188 13.5656 8.2375 14.5625 6.5 15ZM6.5 13.425C7.8 13.0125 8.875 12.1875 9.725 10.95C10.575 9.7125 11 8.3375 11 6.825V3.28125L6.5 1.59375L2 3.28125V6.825C2 8.3375 2.425 9.7125 3.275 10.95C4.125 12.1875 5.2 13.0125 6.5 13.425ZM6.5 11.25C6.5 10.2 6.8625 9.3125 7.5875 8.5875C8.3125 7.8625 9.2 7.5 10.25 7.5C9.2 7.5 8.3125 7.1375 7.5875 6.4125C6.8625 5.6875 6.5 4.8 6.5 3.75C6.5 4.8 6.1375 5.6875 5.4125 6.4125C4.6875 7.1375 3.8 7.5 2.75 7.5C3.8 7.5 4.6875 7.8625 5.4125 8.5875C6.1375 9.3125 6.5 10.2 6.5 11.25Z" fill="black"/>
</svg>
